<svg xmlns="http://www.w3.org/2000/svg" xmlns:xlink="http://www.w3.org/1999/xlink" width="189" zoomAndPan="magnify" viewBox="0 0 141.12 149.04" height="189" preserveAspectRatio="xMidYMid meet" version="1.2"><defs><clipPath id="81bee8ccb2"><path d="M 11.882812 0.269531 L 128.28125 0.269531 L 128.28125 139.648438 L 11.882812 139.648438 Z M 11.882812 0.269531 "/></clipPath></defs><g id="388131564d"><g clip-rule="nonzero" clip-path="url(#81bee8ccb2)"><path style="fill:none;stroke-width:1;stroke-linecap:butt;stroke-linejoin:miter;stroke:#2196f3;stroke-opacity:1;stroke-miterlimit:4;" d="M 819.964129 505.737751 L 819.964129 1011.492449 C 819.964129 1016.990083 818.91433 1022.321959 816.787104 1027.405199 C 814.687506 1032.516064 811.676239 1037.019151 807.78093 1040.942086 C 803.857995 1044.837395 799.354908 1047.848662 794.244043 1049.94826 C 789.160803 1052.075486 783.856553 1053.125285 778.331293 1053.125285 L -148.862631 1053.125285 C -154.387891 1053.125285 -159.692141 1052.075486 -164.803006 1049.94826 C -169.886246 1047.848662 -174.389333 1044.837395 -178.312268 1040.942086 C -182.207576 1037.019151 -185.218843 1032.516064 -187.318442 1027.405199 C -189.445667 1022.321959 -190.495467 1016.990083 -190.495467 1011.492449 L -190.495467 505.737751 C -190.550719 494.631978 -188.423494 483.912973 -184.169044 473.635989 C -179.914593 463.359005 -173.836807 454.297579 -165.935685 446.479335 L -165.935685 446.451709 L 255.503541 25.012483 C 259.39885 21.144801 263.625674 17.663887 268.21164 14.597367 C 272.76998 11.558474 277.604582 8.989228 282.687822 6.862003 C 287.771061 4.762404 292.992432 3.187705 298.407187 2.110279 C 303.794316 1.032853 309.236697 0.507954 314.734331 0.507954 C 320.231965 0.507954 325.674347 1.032853 331.061475 2.110279 C 336.47623 3.187705 341.697601 4.762404 346.780841 6.862003 C 351.86408 8.989228 356.698683 11.558474 361.257023 14.597367 C 365.842989 17.663887 370.069813 21.144801 373.965121 25.012483 L 795.404347 446.451709 L 795.404347 446.479335 C 803.305469 454.297579 809.383256 463.359005 813.637706 473.635989 C 817.892156 483.912973 820.019382 494.631978 819.964129 505.737751 Z M 819.964129 505.737751 " transform="matrix(0.141396,0,0,0.141396,11.900151,0.268021)"/></g></g></svg>